<?xml version="1.0" standalone="no"?>
<!DOCTYPE svg PUBLIC "-//W3C//DTD SVG 20010904//EN"
 "http://www.w3.org/TR/2001/REC-SVG-20010904/DTD/svg10.dtd">
<svg version="1.0" xmlns="http://www.w3.org/2000/svg"
 width="225.000000pt" height="225.000000pt" viewBox="0 0 225.000000 225.000000"
 preserveAspectRatio="xMidYMid meet">

<g transform="translate(0.000000,225.000000) scale(0.100000,-0.100000)"
fill="#2580f4" stroke="none">
<path d="M443 2130 c-67 -40 -63 17 -63 -1005 0 -1022 -4 -965 63 -1005 31
-19 55 -20 682 -20 627 0 651 1 682 20 66 40 63 4 63 802 l0 723 -253 253
-252 252 -445 0 c-424 0 -447 -1 -477 -20z m1107 -830 l0 -60 -425 0 -425 0 0
60 0 60 425 0 425 0 0 -60z m0 -280 l0 -60 -425 0 -425 0 0 60 0 60 425 0 425
0 0 -60z m-230 -280 l0 -60 -310 0 -310 0 0 60 0 60 310 0 310 0 0 -60z"/>
</g>
</svg>
