<?xml version="1.0" standalone="no"?>
<!DOCTYPE svg PUBLIC "-//W3C//DTD SVG 20010904//EN"
 "http://www.w3.org/TR/2001/REC-SVG-20010904/DTD/svg10.dtd">
<svg version="1.0" xmlns="http://www.w3.org/2000/svg"
 width="1200.000000pt" height="1660.000000pt" viewBox="0 0 1200.000000 1660.000000"
 preserveAspectRatio="xMidYMid meet">

<g transform="translate(0.000000,1660.000000) scale(0.100000,-0.100000)"
fill="#000000" stroke="none">
<path d="M8100 12134 c96 -98 857 -864 1691 -1701 l1516 -1523 72 0 c46 0 70
-4 66 -10 -3 -5 -32 -10 -62 -10 l-57 0 29 -30 29 -30 308 0 308 0 0 1620 0
1620 -1772 3 c-1609 3 -1779 5 -1838 20 -159 40 -285 95 -400 174 -59 40 -48
27 110 -133z"/>
<path d="M11525 8690 l29 -30 223 0 223 0 0 30 0 30 -252 0 -252 0 29 -30z"/>
<path d="M11980 1035 c0 -49 -49 -205 -92 -294 -147 -305 -422 -530 -748 -612
-77 -20 -124 -22 -500 -29 -228 -5 -1271 -8 -2317 -9 l-1903 -1 -61 -45 -62
-46 2354 4 c2163 3 2360 5 2429 20 116 26 197 55 300 108 281 144 493 406 574
707 25 92 43 222 32 222 -3 0 -6 -11 -6 -25z"/>
</g>
</svg>
