<?xml version="1.0" standalone="no"?>
<!DOCTYPE svg PUBLIC "-//W3C//DTD SVG 20010904//EN"
 "http://www.w3.org/TR/2001/REC-SVG-20010904/DTD/svg10.dtd">
<svg version="1.0" xmlns="http://www.w3.org/2000/svg"
 width="1200.000000pt" height="1200.000000pt" viewBox="0 0 1200.000000 1200.000000"
 preserveAspectRatio="xMidYMid meet">

<g transform="translate(0.000000,1200.000000) scale(0.100000,-0.100000)"
fill="#1f6e43" stroke="none">
<path d="M3568 11370 l-3568 -624 0 -4746 0 -4746 3568 -624 3567 -625 3 712
2 713 2168 0 c2379 0 2240 -3 2369 60 137 67 245 193 294 341 l24 74 0 4235
c0 4080 -1 4237 -18 4294 -58 186 -189 326 -366 390 -56 21 -68 21 -2261 26
l-2205 5 -5 570 -5 570 -3567 -625z m7862 -5225 l0 -4145 -2145 0 -2145 0 0
430 0 430 430 0 430 0 0 425 0 425 -430 0 -430 0 0 290 0 290 430 0 430 0 0
425 0 425 -430 0 -430 0 0 290 0 290 430 0 430 0 0 425 0 425 -430 0 -430 0 2
288 3 287 428 3 427 2 0 425 0 425 -430 0 -430 0 0 285 0 285 430 0 430 0 0
430 0 430 -430 0 -430 0 0 430 0 430 2145 0 2145 0 0 -4145z m-6330 2420 c0
-3 -266 -544 -591 -1203 l-591 -1197 613 -1222 c337 -672 611 -1224 609 -1227
-8 -7 -1084 63 -1091 72 -3 4 -155 360 -337 792 -256 607 -337 809 -357 890
-14 58 -25 114 -25 125 -1 11 -17 -41 -36 -115 -30 -115 -81 -241 -351 -865
-173 -401 -319 -734 -324 -739 -5 -6 -181 1 -461 17 -249 15 -459 27 -465 27
-7 0 -13 4 -13 8 0 5 254 506 564 1115 l565 1105 -510 1104 c-280 607 -507
1108 -505 1113 5 13 944 71 956 59 11 -13 533 -1372 564 -1469 13 -44 35 -117
48 -162 l23 -82 23 82 c63 224 113 354 391 1006 165 387 303 707 306 710 7 6
795 57 923 60 39 0 72 -1 72 -4z"/>
<path d="M8575 9417 c-3 -6 -4 -199 -3 -427 l3 -415 998 -3 997 -2 0 430 0
430 -995 0 c-788 0 -997 -3 -1000 -13z"/>
<path d="M8570 7575 l0 -425 1000 0 1000 0 0 425 0 425 -1000 0 -1000 0 0
-425z"/>
<path d="M8570 6145 l0 -425 1000 0 1000 0 0 425 0 425 -1000 0 -1000 0 0
-425z"/>
<path d="M8570 4715 l0 -425 1000 0 1000 0 0 425 0 425 -1000 0 -1000 0 0
-425z"/>
<path d="M8570 3285 l0 -425 1000 0 1000 0 0 425 0 425 -1000 0 -1000 0 0
-425z"/>
</g>
</svg>
